<svg width="200" height="400" viewBox="0 0 200 400" fill="none" xmlns="http://www.w3.org/2000/svg">
  <circle cx="100" cy="40" r="22" stroke="rgba(255, 255, 255, 0.25)" stroke-width="2"/>
  <path d="M70 70C70 60.9543 77.9543 53 87 53H113C122.046 53 130 60.9543 130 70V180C130 189.046 122.046 197 113 197H87C77.9543 197 70 189.046 70 180V70Z" stroke="rgba(255, 255, 255, 0.25)" stroke-width="2"/>
  <path d="M30 100C30 91.1634 37.1634 84 46 84H54C62.8366 84 70 91.1634 70 100V210C70 218.837 62.8366 226 54 226H46C37.1634 226 30 218.837 30 210V100Z" stroke="rgba(255, 255, 255, 0.18)" stroke-width="2"/>
  <path d="M130 100C130 91.1634 137.163 84 146 84H154C162.837 84 170 91.1634 170 100V210C170 218.837 162.837 226 154 226H146C137.163 226 130 218.837 130 210V100Z" stroke="rgba(255, 255, 255, 0.18)" stroke-width="2"/>
  <path d="M72 220C72 210.611 79.6112 203 89 203H111C120.389 203 128 210.611 128 220V360C128 369.389 120.389 377 111 377H89C79.6112 377 72 369.389 72 360V220Z" stroke="rgba(255, 255, 255, 0.2)" stroke-width="2"/>
</svg>
